HIERARCHY
ROOT Hips
{
	OFFSET 0.000000 0.000000 0.000000 
	CHANNELS 6 Xposition Yposition Zposition Yrotation Zrotation Xrotation 
	JOINT Lumbar
	{
		OFFSET 0.000000 0.000000 0.000000 
		CHANNELS 3 Zrotation Xrotation Yrotation
		JOINT Neck
		{
			OFFSET 0.000000 0.445665 0.000000 
			CHANNELS 3 Zrotation Xrotation Yrotation
			End Site
			{
				OFFSET 0.000000 0.227535 0.000000 
			}
		}
		JOINT RightShoulder
		{
			OFFSET 0.019635 0.377685 0.194865 
			CHANNELS 3 Zrotation Xrotation Yrotation
			JOINT RightElbow
			{
				OFFSET 0.000000 -0.243375 0.000000 
				CHANNELS 2 Zrotation Yrotation
				JOINT RightWrist
				{
					OFFSET 0.000000 -0.264825 0.000000 
					CHANNELS 2 Zrotation Xrotation
					End Site
					{
						OFFSET 0.006600 -0.176220 0.000990 
					}
				}
			}
		}
		JOINT LeftShoulder
		{
			OFFSET 0.019635 0.377685 -0.194865 
			CHANNELS 3 Zrotation Xrotation Yrotation
			JOINT LeftElbow
			{
				OFFSET 0.000000 -0.243375 0.000000 
				CHANNELS 2 Zrotation Yrotation
				JOINT LeftWrist
				{
					OFFSET 0.000000 -0.264825 0.000000 
					CHANNELS 2 Zrotation Xrotation
					End Site
					{
						OFFSET 0.006600 -0.176220 -0.000990 
					}
				}
			}
		}
	}
	JOINT RightHip
	{
		OFFSET 0.052140 -0.069960 0.075570 
		CHANNELS 3 Zrotation Xrotation Yrotation
		JOINT RightKnee
		{
			OFFSET 0.000000 -0.402270 0.000000 
			CHANNELS 1 Zrotation
			JOINT RightAnkle
			{
				OFFSET 0.000000 -0.404085 0.000000 
				CHANNELS 3 Zrotation Xrotation Yrotation
				End Site
				{
					OFFSET 0.204105 -0.089430 0.008415 
				}
			}
		}
	}
	JOINT LeftHip
	{
		OFFSET 0.052140 -0.069960 -0.075570 
		CHANNELS 3 Zrotation Xrotation Yrotation
		JOINT LeftKnee
		{
			OFFSET 0.000000 -0.402270 0.000000 
			CHANNELS 1 Zrotation
			JOINT LeftAnkle
			{
				OFFSET 0.000000 -0.404085 0.000000 
				CHANNELS 3 Zrotation Xrotation Yrotation
				End Site
				{
					OFFSET 0.204105 -0.089430 -0.008415 
				}
			}
		}
	}
}
MOTION
Frames: 13
Frame Time: 0.02
-0.07583 0.00114 -0.43302 -14.20458 -22.49169 -0.26201 42.99544 0.04757 3.54479 3.24971 17.52329 -2.11994 93.19144 -57.26012 0.77968 31.78041 62.33056 27.46154 -5.65512 -33.58587 12.38716 17.02287 40.1643 -103.62626 21.50677 -0.7183 46.80717 -11.79335 -14.41343 -24.72179 -9.87233 -1.94115 -3.33531 35.98257 2.32247 7.4447 -24.41278 -6.60083 1.62182 3.03095
-0.08244 0.00143 -0.42838 -15.39869 -23.40961 -1.0786 42.79539 -0.11129 1.84822 2.97769 18.49627 -2.11994 86.21974 -56.21267 -3.54003 37.72552 62.49674 26.77457 -5.58866 -34.74663 12.99277 15.48771 41.48366 -103.13185 20.87918 -0.70787 48.0413 -10.86604 -14.27405 -24.68203 -9.86112 -1.72321 -3.22841 37.33009 3.56232 7.42181 -24.4976 -6.59616 1.6758 3.0553
-0.08895 0.00136 -0.42373 -16.59573 -24.35095 -1.86849 42.76634 -0.24709 0.13619 2.44805 19.29037 -2.11994 78.58087 -54.57249 -8.95541 44.3767 63.64483 25.64243 -5.56419 -35.71891 13.74007 14.03165 42.47291 -103.27618 20.39771 -0.80566 49.25048 -10.00439 -13.98578 -24.72132 -9.77922 -1.51316 -3.12232 38.68419 4.84931 7.693 -24.60397 -6.59307 1.70163 3.06614
-0.09543 0.00146 -0.41906 -17.77618 -25.26181 -2.65808 42.66424 -0.3943 -1.55172 2.02062 20.14285 -2.11994 71.28046 -53.1968 -13.8141 50.69361 64.37495 24.69915 -5.50808 -36.75267 14.42538 12.55839 43.60465 -103.13104 19.85785 -0.85329 50.42969 -9.12871 -13.77987 -24.73568 -9.72727 -1.3103 -3.02102 40.00914 6.09395 7.79115 -24.70075 -6.58996 1.74334 3.08471
-0.10228 0.00153 -0.41446 -19.02401 -26.25943 -3.50761 42.53804 -0.53893 -3.32391 1.65659 21.10156 -2.11994 63.79079 -51.84366 -18.94796 57.1033 64.97584 23.81032 -5.49587 -37.89978 15.10911 10.97389 44.78144 -102.97021 19.27725 -0.9033 51.78875 -8.17757 -13.50117 -24.70621 -9.6856 -1.06177 -2.8979 41.4506 7.43296 8.04259 -24.7978 -6.58399 1.77304 3.09704
-0.1083 0.00157 -0.40972 -20.13131 -27.08001 -4.22204 42.50482 -0.6834 -4.91836 1.09887 21.79209 -2.11994 56.55714 -50.30312 -23.7559 63.46577 66.07502 22.70939 -5.40678 -38.76139 15.8237 9.65803 45.78243 -102.99692 18.8186 -0.97445 52.76343 -7.40285 -13.34054 -24.78531 -9.60599 -0.91019 -2.82042 42.64718 8.58467 8.05349 -24.89927 -6.58424 1.82039 3.11884
-0.11206 0.00162 -0.40463 -20.84678 -27.41477 -4.58245 42.68077 -0.82736 -6.03247 0.07221 21.79451 -2.11994 50.13808 -48.37654 -27.4261 69.61849 68.40892 21.05508 -5.08165 -38.88391 16.62311 8.99262 46.35871 -103.40469 18.66446 -1.08081 52.70359 -7.09604 -13.57211 -25.15035 -9.43039 -1.02566 -2.86904 43.18314 9.20241 7.2786 -25.0042 -6.60226 1.92705 3.17194
-0.11497 0.00164 -0.39938 -21.42102 -27.56849 -4.80434 42.94606 -0.97273 -6.96273 -1.14077 21.53004 -2.11994 44.01691 -46.28407 -30.72053 75.67653 71.19539 19.21592 -4.68122 -38.72334 17.44147 8.61152 46.7705 -103.97758 18.62843 -1.20438 52.25308 -6.96657 -13.92483 -25.62005 -9.22031 -1.23807 -2.96345 43.46832 9.62975 6.26098 -25.11329 -6.62638 2.05175 3.23471
-0.11823 0.00165 -0.39416 -22.06121 -27.79915 -5.08091 43.17468 -1.12095 -7.96662 -2.27079 21.38125 -2.11994 37.79847 -44.27577 -34.1647 81.71464 73.71147 17.5115 -4.32541 -38.68884 18.22796 8.15164 47.26931 -104.46399 18.53704 -1.31814 51.96772 -6.75882 -14.20348 -26.03865 -9.03139 -1.40549 -3.03684 43.85681 10.14717 5.38947 -25.22254 -6.64691 2.16549 3.29171
-0.12164 0.00174 -0.38912 -22.69333 -28.05362 -5.39268 43.39237 -1.25373 -9.01417 -3.40384 21.25139 -2.11994 31.38764 -42.20905 -37.73975 88.04968 76.53154 15.57912 -3.92757 -38.65928 19.11788 7.48279 47.70738 -105.02044 18.45758 -1.44397 51.73519 -6.5423 -14.55358 -26.47725 -8.81709 -1.57774 -3.11148 44.29182 10.65269 4.38096 -25.32389 -6.67057 2.28943 3.35381
-0.12454 0.00166 -0.38366 -23.30963 -28.21467 -5.5972 43.65214 -1.41922 -9.92558 -4.56986 21.01936 -2.11994 25.46663 -40.23323 -40.93431 93.72693 78.81713 14.08131 -3.59819 -38.55411 19.79478 7.31374 48.23429 -105.46232 18.37963 -1.54744 51.29849 -6.38678 -14.78983 -26.89515 -8.64809 -1.76208 -3.19398 44.56875 11.13547 3.5913 -25.44244 -6.68962 2.39742 3.40808
-0.12624 0.00113 -0.37722 -23.90872 -28.16611 -5.55059 44.00283 -1.67517 -10.51585 -5.79323 20.58483 -2.11994 20.75257 -38.54548 -43.19802 97.6683 79.47732 13.8497 -3.48171 -38.31415 19.87951 8.47339 49.07092 -105.54119 18.27471 -1.5836 50.40825 -6.34361 -14.64583 -27.25488 -8.61524 -1.96292 -3.29041 44.48286 11.61618 3.5092 -25.60707 -6.69049 2.45142 3.43562
-0.12748 0.00042 -0.37034 -24.49857 -28.02893 -5.39862 44.39254 -1.96384 -10.97317 -7.03935 20.05482 -2.11994 16.5407 -36.95963 -45.07955 100.93526 79.58582 14.06046 -3.4352 -38.00797 19.7484 10.12204 49.99893 -105.49679 18.16671 -1.59636 49.32392 -6.35754 -14.38962 -27.58547 -8.62901 -2.17131 -3.39254 44.24398 12.07785 3.64706 -25.78885 -6.68728 2.48986 3.4555
